<svg width="222" height="220" viewBox="0 0 222 220" fill="none" xmlns="http://www.w3.org/2000/svg">
<path fill-rule="evenodd" clip-rule="evenodd" d="M182.46 192.871C163.216 209.627 137.914 219.966 110.118 219.966C49.5351 219.966 0 170.768 0 109.805C0 51.6938 45.2587 3.9216 102.277 0V113.013L182.46 192.871Z" fill="url(#paint0_linear)"/>
<path opacity="0.505539" fill-rule="evenodd" clip-rule="evenodd" d="M103.347 110.161C103.347 137.969 93.0119 163.638 75.9063 182.889L0 106.953V0C57.3752 3.9216 103.347 51.6938 103.347 110.161Z" transform="translate(117.839)" fill="url(#paint1_linear)"/>
<path d="M10.3356 4.04004V5.11328H10.1032C9.11884 5.13151 8.33499 5.42318 7.75165 5.98828C7.16832 6.55339 6.83108 7.34863 6.73993 8.37402C7.26402 7.77246 7.97952 7.47168 8.88642 7.47168C9.7523 7.47168 10.4427 7.77702 10.9577 8.3877C11.4772 8.99837 11.737 9.78678 11.737 10.7529C11.737 11.7783 11.4567 12.5986 10.8962 13.2139C10.3402 13.8291 9.5928 14.1367 8.654 14.1367C7.70152 14.1367 6.92906 13.7721 6.33661 13.043C5.74417 12.3092 5.44794 11.3659 5.44794 10.2129V9.72754C5.44794 7.89551 5.83759 6.49642 6.61689 5.53027C7.40074 4.55957 8.56513 4.06283 10.1101 4.04004H10.3356ZM8.67451 8.52441C8.24156 8.52441 7.8428 8.6543 7.47822 8.91406C7.11363 9.17383 6.8607 9.49967 6.71943 9.8916V10.3564C6.71943 11.1768 6.904 11.8376 7.27314 12.3389C7.64228 12.8402 8.10257 13.0908 8.654 13.0908C9.22366 13.0908 9.67027 12.8812 9.99384 12.4619C10.322 12.0426 10.486 11.4935 10.486 10.8145C10.486 10.1309 10.3197 9.57943 9.98701 9.16016C9.65888 8.73633 9.22138 8.52441 8.67451 8.52441ZM19.592 9.75488C19.592 11.236 19.339 12.3366 18.8332 13.0566C18.3273 13.7767 17.5366 14.1367 16.4611 14.1367C15.3992 14.1367 14.6131 13.7858 14.1027 13.084C13.5923 12.3776 13.328 11.3249 13.3097 9.92578V8.2373C13.3097 6.77441 13.5627 5.6875 14.0685 4.97656C14.5744 4.26562 15.3673 3.91016 16.4474 3.91016C17.5184 3.91016 18.3068 4.25423 18.8127 4.94238C19.3185 5.62598 19.5783 6.68327 19.592 8.11426V9.75488ZM18.3273 8.02539C18.3273 6.95443 18.1769 6.17513 17.8761 5.6875C17.5754 5.19531 17.0991 4.94922 16.4474 4.94922C15.8003 4.94922 15.3286 5.19303 15.0324 5.68066C14.7362 6.16829 14.5835 6.91797 14.5744 7.92969V9.95312C14.5744 11.0286 14.7293 11.8239 15.0392 12.3389C15.3537 12.8493 15.8276 13.1045 16.4611 13.1045C17.0854 13.1045 17.548 12.863 17.8488 12.3799C18.1541 11.8968 18.3136 11.1357 18.3273 10.0967V8.02539ZM21.2194 5.96094C21.2194 5.36393 21.4085 4.87174 21.7867 4.48438C22.1696 4.09701 22.6595 3.90332 23.2565 3.90332C23.8626 3.90332 24.3525 4.09928 24.7262 4.49121C25.1045 4.87858 25.2936 5.38216 25.2936 6.00195V6.4873C25.2936 7.08887 25.1022 7.58105 24.7194 7.96387C24.3411 8.34212 23.858 8.53125 23.2701 8.53125C22.6777 8.53125 22.1878 8.34212 21.8004 7.96387C21.413 7.58105 21.2194 7.07292 21.2194 6.43945V5.96094ZM22.1627 6.4873C22.1627 6.84277 22.263 7.13672 22.4635 7.36914C22.664 7.59701 22.9329 7.71094 23.2701 7.71094C23.5937 7.71094 23.8535 7.59928 24.0494 7.37598C24.25 7.15267 24.3502 6.84733 24.3502 6.45996V5.96094C24.3502 5.60547 24.2522 5.31152 24.0563 5.0791C23.8603 4.84668 23.5937 4.73047 23.2565 4.73047C22.9192 4.73047 22.6526 4.84668 22.4567 5.0791C22.2607 5.31152 22.1627 5.61458 22.1627 5.98828V6.4873ZM26.066 11.5596C26.066 10.9626 26.2552 10.4727 26.6334 10.0898C27.0162 9.70247 27.5061 9.50879 28.1032 9.50879C28.7002 9.50879 29.1901 9.7002 29.5729 10.083C29.9557 10.4658 30.1471 10.974 30.1471 11.6074V12.0928C30.1471 12.6898 29.9557 13.182 29.5729 13.5693C29.1946 13.9521 28.7093 14.1436 28.1168 14.1436C27.5244 14.1436 27.0345 13.9544 26.6471 13.5762C26.2597 13.1934 26.066 12.6852 26.066 12.0518V11.5596ZM27.0094 12.0928C27.0094 12.4528 27.1097 12.749 27.3102 12.9814C27.5107 13.2093 27.7796 13.3232 28.1168 13.3232C28.4449 13.3232 28.707 13.2116 28.903 12.9883C29.0989 12.7604 29.1969 12.4528 29.1969 12.0654V11.5596C29.1969 11.1995 29.0966 10.9056 28.8961 10.6777C28.7002 10.4499 28.4358 10.3359 28.1032 10.3359C27.7796 10.3359 27.5153 10.4499 27.3102 10.6777C27.1097 10.901 27.0094 11.2041 27.0094 11.5869V12.0928ZM23.5573 13.248L22.8395 12.7969L27.6998 5.01758L28.4176 5.46875L23.5573 13.248Z" transform="translate(46.9789 93)" fill="white"/>
<path d="M10.7116 10.6572H12.0925V11.6895H10.7116V14H9.44013V11.6895H4.9079V10.9443L9.36493 4.04688H10.7116V10.6572ZM6.34345 10.6572H9.44013V5.77637L9.28974 6.0498L6.34345 10.6572ZM19.592 9.75488C19.592 11.236 19.339 12.3366 18.8332 13.0566C18.3273 13.7767 17.5366 14.1367 16.4611 14.1367C15.3992 14.1367 14.6131 13.7858 14.1027 13.084C13.5923 12.3776 13.328 11.3249 13.3097 9.92578V8.2373C13.3097 6.77441 13.5627 5.6875 14.0685 4.97656C14.5744 4.26562 15.3673 3.91016 16.4474 3.91016C17.5184 3.91016 18.3068 4.25423 18.8127 4.94238C19.3185 5.62598 19.5783 6.68327 19.592 8.11426V9.75488ZM18.3273 8.02539C18.3273 6.95443 18.1769 6.17513 17.8761 5.6875C17.5754 5.19531 17.0991 4.94922 16.4474 4.94922C15.8003 4.94922 15.3286 5.19303 15.0324 5.68066C14.7362 6.16829 14.5835 6.91797 14.5744 7.92969V9.95312C14.5744 11.0286 14.7293 11.8239 15.0392 12.3389C15.3537 12.8493 15.8276 13.1045 16.4611 13.1045C17.0854 13.1045 17.548 12.863 17.8488 12.3799C18.1541 11.8968 18.3136 11.1357 18.3273 10.0967V8.02539ZM21.2194 5.96094C21.2194 5.36393 21.4085 4.87174 21.7867 4.48438C22.1696 4.09701 22.6595 3.90332 23.2565 3.90332C23.8626 3.90332 24.3525 4.09928 24.7262 4.49121C25.1045 4.87858 25.2936 5.38216 25.2936 6.00195V6.4873C25.2936 7.08887 25.1022 7.58105 24.7194 7.96387C24.3411 8.34212 23.858 8.53125 23.2701 8.53125C22.6777 8.53125 22.1878 8.34212 21.8004 7.96387C21.413 7.58105 21.2194 7.07292 21.2194 6.43945V5.96094ZM22.1627 6.4873C22.1627 6.84277 22.263 7.13672 22.4635 7.36914C22.664 7.59701 22.9329 7.71094 23.2701 7.71094C23.5937 7.71094 23.8535 7.59928 24.0494 7.37598C24.25 7.15267 24.3502 6.84733 24.3502 6.45996V5.96094C24.3502 5.60547 24.2522 5.31152 24.0563 5.0791C23.8603 4.84668 23.5937 4.73047 23.2565 4.73047C22.9192 4.73047 22.6526 4.84668 22.4567 5.0791C22.2607 5.31152 22.1627 5.61458 22.1627 5.98828V6.4873ZM26.066 11.5596C26.066 10.9626 26.2552 10.4727 26.6334 10.0898C27.0162 9.70247 27.5061 9.50879 28.1032 9.50879C28.7002 9.50879 29.1901 9.7002 29.5729 10.083C29.9557 10.4658 30.1471 10.974 30.1471 11.6074V12.0928C30.1471 12.6898 29.9557 13.182 29.5729 13.5693C29.1946 13.9521 28.7093 14.1436 28.1168 14.1436C27.5244 14.1436 27.0345 13.9544 26.6471 13.5762C26.2597 13.1934 26.066 12.6852 26.066 12.0518V11.5596ZM27.0094 12.0928C27.0094 12.4528 27.1097 12.749 27.3102 12.9814C27.5107 13.2093 27.7796 13.3232 28.1168 13.3232C28.4449 13.3232 28.707 13.2116 28.903 12.9883C29.0989 12.7604 29.1969 12.4528 29.1969 12.0654V11.5596C29.1969 11.1995 29.0966 10.9056 28.8961 10.6777C28.7002 10.4499 28.4358 10.3359 28.1032 10.3359C27.7796 10.3359 27.5153 10.4499 27.3102 10.6777C27.1097 10.901 27.0094 11.2041 27.0094 11.5869V12.0928ZM23.5573 13.248L22.8395 12.7969L27.6998 5.01758L28.4176 5.46875L23.5573 13.248Z" transform="translate(150.979 60)" fill="white"/>
<defs>
<linearGradient id="paint0_linear" x2="1" gradientUnits="userSpaceOnUse" gradientTransform="translate(52.8417 28.2327) scale(133.578 161.036) rotate(79.6255)">
<stop stop-color="#42A2E8"/>
<stop offset="1" stop-color="#42DEE8"/>
</linearGradient>
<linearGradient id="paint1_linear" x2="1" gradientUnits="userSpaceOnUse" gradientTransform="translate(37.7473 47.1382) scale(61.0436 108.027) rotate(65.1168)">
<stop stop-color="#8F97DA"/>
<stop offset="1" stop-color="#7EA8D9"/>
</linearGradient>
</defs>
</svg>
