<svg width="510" height="202" viewBox="0 0 510 202" fill="none" xmlns="http://www.w3.org/2000/svg">
<path opacity="0.2" d="M0 1.29725H508" transform="translate(1 132.884)" stroke="#232425" stroke-linecap="square"/>
<path opacity="0.2" d="M0 1.29726H508" transform="translate(1 66.832)" stroke="#232425" stroke-linecap="square"/>
<path opacity="0.2" d="M0 1.29726H508" transform="translate(1 0.779968)" stroke="#232425" stroke-linecap="square"/>
<path opacity="0.2" d="M0 1.29725H508" transform="translate(1 198.936)" stroke="#232425" stroke-linecap="square"/>
<path d="M0 181.821L56.5594 130.6L116.791 117.521L176.839 156.676L237.83 45.5324L295.251 0L356.215 50.1174L417.361 6.64511L478.225 83.4879" transform="translate(1.77494 17.1791)" stroke="#C04DD8" stroke-width="3"/>
<path d="M0 110.951L57.6251 66.5681L117.131 102.444L178.276 58.7958L238.835 0L296.059 117.408L356.964 168.449L417.966 124.984L478.515 3.28694" transform="translate(1 3)" stroke="#4ED8DA" stroke-width="3"/>
</svg>
