<svg width="477" height="30" viewBox="0 0 477 30" fill="none" xmlns="http://www.w3.org/2000/svg">
<path fill-rule="evenodd" clip-rule="evenodd" d="M0.514771 15.3919C16.3965 5.85601 28.636 1.0457 40.6901 1.00033C52.4981 0.955882 64.2097 5.48379 79.0731 14.807L79 14.9287C94.9293 24.4931 107.359 29.4165 119.686 29.4629C132.019 29.5093 144.164 24.6752 159.525 14.9221L159.464 14.8251C174.886 5.6654 186.877 1.0448 198.69 1.00033C210.498 0.955882 222.21 5.48379 237.073 14.807L237 14.9287C252.929 24.4931 265.359 29.4165 277.686 29.4629C290.019 29.5093 302.164 24.6752 317.525 14.9221L317.464 14.8251C332.886 5.6654 344.877 1.0448 356.69 1.00033C368.498 0.955882 380.21 5.48379 395.073 14.807L395 14.9287C410.929 24.4931 423.359 29.4165 435.686 29.4629C448.019 29.5093 460.164 24.6752 475.525 14.9221L474.989 14.0779C459.689 23.7922 447.74 28.5083 435.69 28.4629C423.877 28.4184 411.886 23.7978 396.464 14.6381L396.525 14.5411C381.164 4.78804 369.019 -0.0460861 356.686 0.00033109C344.359 0.0467331 331.929 4.97014 316 14.5346L316.073 14.6562C301.21 23.9794 289.498 28.5074 277.69 28.4629C265.877 28.4184 253.886 23.7978 238.464 14.6381L238.525 14.5411C223.164 4.78804 211.019 -0.0460861 198.686 0.00033109C186.359 0.0467331 173.929 4.97014 158 14.5346L158.073 14.6562C143.21 23.9794 131.498 28.5074 119.69 28.4629C107.877 28.4184 95.8862 23.7978 80.4638 14.6381L80.5254 14.5411C65.1639 4.78804 53.0186 -0.0460861 40.6864 0.00033109C28.3588 0.0467331 15.9293 4.97014 0 14.5346L0.514771 15.3919Z" transform="translate(0.742676 0.5)" fill="white"/>
</svg>
