<svg xmlns="http://www.w3.org/2000/svg" xmlns:xlink="http://www.w3.org/1999/xlink" width="48" height="48" viewBox="0 0 48 48"><defs><path id="hdh7a" d="M207.54 354.02a19.54 19.54 0 0 0-19.52-19.52 19.54 19.54 0 0 0-19.52 19.52 19.54 19.54 0 0 0 19.52 19.52 19.54 19.54 0 0 0 19.52-19.52zm4.5 0a24.05 24.05 0 0 1-24.02 24.02A24.05 24.05 0 0 1 164 354.02 24.05 24.05 0 0 1 188.02 330a24.05 24.05 0 0 1 24.02 24.02zm-21.02 0v9a3 3 0 0 1-6 0v-9a3 3 0 0 1 6 0zm0-9a3 3 0 1 1-6 0 3 3 0 0 1 6 0z"/></defs><g><g transform="translate(-164 -330)"><use fill="#583ac1" xlink:href="#hdh7a"/></g></g></svg>