<svg xmlns="http://www.w3.org/2000/svg" xmlns:xlink="http://www.w3.org/1999/xlink" width="19" height="18" viewBox="0 0 19 18"><defs><path id="g6m9a" d="M189.81 120.1a3.13 3.13 0 0 1-3.15-3.1c0-1.7 1.41-3.1 3.15-3.1a3.13 3.13 0 0 1 3.16 3.1c0 1.7-1.42 3.1-3.16 3.1zm6.76-5.3l-.09-.04-.34-.82.04-.08c1.03-2.34.96-2.41.79-2.58l-1.38-1.35a.37.37 0 0 0-.24-.1c-.08 0-.32 0-2.35.93l-.09.03-.84-.33-.03-.09c-.96-2.37-1.06-2.37-1.3-2.37h-1.94c-.24 0-.35 0-1.24 2.38l-.03.08-.84.34-.08-.03a12.87 12.87 0 0 0-2.39-.88.37.37 0 0 0-.24.1l-1.38 1.35c-.18.17-.25.24.84 2.54l.04.08-.34.82-.09.03c-2.42.94-2.42 1.03-2.42 1.27V118c0 .25 0 .35 2.43 1.22l.09.03.34.81-.04.09c-1.03 2.34-.97 2.4-.8 2.58l1.39 1.35c.05.06.15.1.24.1.08 0 .31 0 2.35-.93l.08-.04.84.34.03.09c.96 2.37 1.06 2.37 1.3 2.37h1.95c.24 0 .34 0 1.23-2.38l.04-.08.83-.34.08.03c1.38.58 2.19.88 2.4.88.08 0 .18-.04.24-.1l1.38-1.35c.17-.17.25-.24-.84-2.54l-.04-.08.34-.82.08-.03c2.43-.94 2.43-1.03 2.43-1.28v-1.9c0-.25 0-.35-2.43-1.22z"/></defs><g><g transform="translate(-180 -108)"><use fill="#fff" xlink:href="#g6m9a"/></g></g></svg>