<?xml version="1.0" encoding="utf-8"?>

<!-- Generator: Adobe Illustrator 16.2.0, SVG Export Plug-In . SVG Version: 6.00 Build 0)  -->

<!DOCTYPE svg PUBLIC "-//W3C//DTD SVG 1.1//EN" "http://www.w3.org/Graphics/SVG/1.1/DTD/svg11.dtd">

<svg version="1.1" id="Слой_1" xmlns:svg="http://www.w3.org/2000/svg"

	 xmlns="http://www.w3.org/2000/svg" xmlns:xlink="http://www.w3.org/1999/xlink" x="0px" y="0px" width="512px" height="512px"

	 viewBox="0 0 512 512" enable-background="new 0 0 512 512" xml:space="preserve">

<g>

	<title>Слой 2</title>

	<rect id="svg_4" x="-1.174" y="-1.175" fill="#FFFFFF" width="512" height="512"/>

</g>

<g>

	<title>Layer 1</title>

	<path id="path3271" fill="#036CB5" d="M359.349,400.163l-30.264-30.254l-24.9,24.871c-6.949,6.988-18.283,6.988-25.232,0

		l-62.31-62.23c-7.008-6.97-6.988-18.265-0.02-25.233l7.576-7.546l-39.347-39.308c-6.93-6.95-6.93-18.216,0-25.175l10.473-10.473

		l-39.328-39.288c-6.969-6.988-6.93-18.215,0-25.204l62.368-62.299c6.989-6.9,18.206-6.9,25.194,0.02l18.029,18.01l30.049-30.02

		l2.545-1.674l-13.918-2.76c-7.635-1.008-15.426-1.537-23.334-1.537c-97.545,0-176.689,79.076-176.689,176.464

		c0,97.379,79.144,176.444,176.689,176.444c36.273,0,70.002-10.903,98.054-29.637L359.349,400.163z M330.514,101.959l3.759-3.739

		l-10.316-4.981l-3.309-1.136L330.514,101.959z"/>

	<g id="XMLID_1_">

		<g>

			<path fill="#036CB5" d="M377.321,395.42c3.39,3.4,3.05,8.98-0.71,11.96C343.75,433.44,302.151,449,256.93,449

				c-106.37,0-192.72-86.22-192.72-192.47c0-106.26,86.35-192.51,192.72-192.51c34.49,0,66.87,9.07,94.9,24.94

				c4.62,2.6,5.479,8.92,1.74,12.66l-17.36,17.36c-3.15,3.12-8.2,3.12-11.35,0l-21.87-21.55l-35.721,35.64

				c-3.159,3.13-8.229,3.13-11.359,0l-23.65-23.66c-0.7-0.69-1.89-0.69-2.6,0.02l-62.31,62.2c-0.74,0.75-0.68,1.89,0,2.54

				l45.01,44.98c3.11,3.14,3.11,8.21-0.02,11.35l-16.13,16.1c-0.69,0.71-0.69,1.84,0,2.55l44.98,44.93

				c3.15,3.12,3.15,8.21,0.02,11.36l-13.23,13.229c-0.73,0.72-0.71,1.84-0.02,2.53l62.35,62.27c0.7,0.7,1.82,0.7,2.521,0

				l30.62-30.58c3.109-3.12,8.18-3.12,11.33,0L377.321,395.42z"/>

		</g>

		<g>

		</g>

	</g>

	<path id="path3273" fill="#036CB5" d="M227.547,207.452l-30.597-30.626c-2.584-2.564-2.584-6.754,0-9.318l30.597-30.626

		c2.584-2.564,6.753-2.564,9.357,0l30.597,30.626c2.584,2.564,2.584,6.754,0,9.318l-30.597,30.626

		C234.3,210.017,230.131,210.017,227.547,207.452z"/>

	<path id="path3275" fill="#036CB5" d="M259.043,281.868l-30.616-30.597c-2.564-2.594-2.564-6.763,0-9.347l30.616-30.606

		c2.564-2.584,6.754-2.584,9.318,0l30.616,30.606c2.564,2.584,2.564,6.753,0,9.347l-30.616,30.597

		C265.797,284.452,261.608,284.452,259.043,281.868z"/>

	<path id="path3277" fill="#036CB5" d="M290.521,356.285l-30.616-30.597c-2.564-2.594-2.564-6.764,0-9.348l30.616-30.606

		c2.564-2.584,6.754-2.584,9.318,0l30.616,30.606c2.564,2.584,2.564,6.754,0,9.348l-30.616,30.597

		C297.275,358.869,293.085,358.869,290.521,356.285z"/>

	<path id="path3279" fill="#036CB5" d="M298.919,179.352l-22.355-22.365c-1.879-1.909-1.879-4.963,0-6.842l22.355-22.375

		c1.879-1.879,4.933-1.879,6.832,0l22.355,22.375c1.879,1.879,1.879,4.933,0,6.842l-22.355,22.365

		C303.852,181.23,300.798,181.23,298.919,179.352z"/>

	<path id="path3281" fill="#036CB5" d="M327.558,242.306l-22.375-22.364c-1.879-1.89-1.879-4.943,0-6.822l22.375-22.375

		c1.88-1.879,4.934-1.879,6.813,0l22.355,22.375c1.898,1.879,1.898,4.933,0,6.822l-22.355,22.364

		C332.491,244.186,329.438,244.186,327.558,242.306z"/>

	<path id="path3283" fill="#036CB5" d="M356.158,311.017l-22.355-22.375c-1.899-1.88-1.899-4.934,0-6.842l22.355-22.365

		c1.879-1.879,4.933-1.879,6.831,0l22.375,22.365c1.88,1.908,1.88,4.962,0,6.842l-22.375,22.375

		C361.091,312.896,358.037,312.896,356.158,311.017z"/>

	<path id="path3285" fill="#036CB5" d="M384.778,376.839l-22.355-22.375c-1.879-1.879-1.879-4.933,0-6.821l22.355-22.365

		c1.898-1.88,4.952-1.88,6.832,0l22.355,22.365c1.879,1.889,1.879,4.942,0,6.821l-22.355,22.375

		C389.73,378.719,386.676,378.719,384.778,376.839z"/>

	<path id="path3287" fill="#036CB5" d="M360.093,154.03l-15.309-15.309c-1.292-1.282-1.292-3.377,0-4.688l15.309-15.288

		c1.272-1.302,3.387-1.302,4.658,0l15.309,15.288c1.312,1.312,1.312,3.406,0,4.688l-15.309,15.309

		C363.48,155.313,361.365,155.313,360.093,154.03z"/>

	<path id="path3289" fill="#036CB5" d="M388.712,219.853l-15.308-15.308c-1.272-1.282-1.272-3.387,0-4.669l15.308-15.308

		c1.292-1.282,3.387-1.282,4.679,0l15.308,15.308c1.272,1.282,1.272,3.387,0,4.669l-15.308,15.308

		C392.099,221.135,390.004,221.135,388.712,219.853z"/>

	<path id="path3291" fill="#036CB5" d="M417.331,282.827l-15.288-15.288c-1.312-1.302-1.312-3.377,0-4.679l15.288-15.317

		c1.292-1.282,3.367-1.282,4.679,0l15.289,15.317c1.312,1.302,1.312,3.377,0,4.679l-15.289,15.288

		C420.698,284.139,418.623,284.139,417.331,282.827z"/>

	<path id="path3293" fill="#FFFFFF" d="M0,466.29V46.873C0,21.024,20.985,0,46.864,0H466.29c25.859,0,46.864,21.024,46.864,46.873

		V466.29c0,25.869-21.005,46.873-46.864,46.873H46.864C20.985,513.163,0,492.159,0,466.29z M497.121,466.29V46.873

		c0-16.981-13.859-30.831-30.831-30.831H46.864c-16.992,0-30.832,13.85-30.832,30.831V466.29c0,17.001,13.84,30.831,30.832,30.831

		H466.29C483.262,497.121,497.121,483.291,497.121,466.29z"/>

</g>

</svg>

