<svg xmlns="http://www.w3.org/2000/svg" xmlns:xlink="http://www.w3.org/1999/xlink" width="17" height="17" viewBox="0 0 17 17"><defs><path id="pkrra" d="M23.17 427.35a6.69 6.69 0 1 1 .01-13.38 6.69 6.69 0 0 1-.01 13.38zm0-14.85a8.18 8.18 0 0 0 0 16.33 8.18 8.18 0 0 0 0-16.33z"/><path id="pkrrb" d="M23.17 415.96a1 1 0 1 0 0 1.99 1 1 0 0 0 0-1.99z"/><path id="pkrrc" d="M23.17 419.43a.74.74 0 0 0-.75.74v4.46a.74.74 0 0 0 1.49 0v-4.46a.74.74 0 0 0-.74-.74z"/></defs><g><g transform="translate(-15 -412)"><g><use fill="#28d7cb" xlink:href="#pkrra"/></g><g><use fill="#28d7cb" xlink:href="#pkrrb"/></g><g><use fill="#28d7cb" xlink:href="#pkrrc"/></g></g></g></svg>