<svg xmlns="http://www.w3.org/2000/svg" xmlns:xlink="http://www.w3.org/1999/xlink" width="17" height="17" viewBox="0 0 17 17"><defs><path id="41nta" d="M293.5 1664.45a6.96 6.96 0 1 1 .02-13.92 6.96 6.96 0 0 1-.02 13.92zm0-15.45a8.51 8.51 0 0 0 0 17 8.51 8.51 0 0 0 0-17z"/><path id="41ntb" d="M293.5 1653.23a.9.9 0 1 0 0 1.8.9.9 0 0 0 0-1.8z"/><path id="41ntc" d="M293.5 1656.38c-.37 0-.67.3-.67.67v4.05a.67.67 0 0 0 1.34 0v-4.05c0-.37-.3-.67-.67-.67z"/></defs><g><g transform="translate(-285 -1649)"><g><use fill="#009595" xlink:href="#41nta"/></g><g><use fill="#009595" xlink:href="#41ntb"/></g><g><use fill="#009595" xlink:href="#41ntc"/></g></g></g></svg>