<svg xmlns="http://www.w3.org/2000/svg" xmlns:xlink="http://www.w3.org/1999/xlink" width="35" height="35" viewBox="0 0 35 35"><defs><path id="mx0za" d="M83.93 354.02c0-7.67-6.24-13.91-13.91-13.91a13.93 13.93 0 0 0-13.91 13.91c0 7.67 6.24 13.91 13.91 13.91s13.91-6.24 13.91-13.91zm3.21 0c0 9.44-7.68 17.12-17.12 17.12a17.14 17.14 0 0 1-17.12-17.12c0-9.44 7.68-17.12 17.12-17.12 9.44 0 17.12 7.68 17.12 17.12zm-14.98 0v6.42a2.14 2.14 0 0 1-4.28 0v-6.42a2.14 2.14 0 0 1 4.28 0zm0-6.42a2.14 2.14 0 1 1-4.28 0 2.14 2.14 0 0 1 4.28 0z"/></defs><g><g transform="translate(-53 -337)"><use fill="#583ac1" xlink:href="#mx0za"/></g></g></svg>