<svg xmlns="http://www.w3.org/2000/svg" xmlns:xlink="http://www.w3.org/1999/xlink" width="37" height="26" viewBox="0 0 37 26"><defs><path id="sj4da" d="M168.85 2210.54c.1 0 .2 0 .3.02 2.18.21 4.47 3.23 5.72 5.14l.9-1.1-15.35-17.06-15.41 17.1.77 1c1.24-2.02 3.5-5.15 5.66-5.43 2.3-.3 3.24 2 3.88 3.52.16.42.35.83.56 1.24.4-1.26 1.1-1.78 2.08-1.55.88.2 1.7 1.08 2.34 1.95.67-.91 1.55-1.8 2.47-1.96 1.38-.24 1.86 1.06 2.03 1.76.19-.35.38-.8.52-1.12.62-1.42 1.5-3.5 3.53-3.5zm-8.56 9.38l-.99-1.82a9.89 9.89 0 0 0-1.38-1.99c-.16.53-.42 1.21-1.1 1.53-.34.16-.9.27-1.63-.12-1-.52-1.5-1.7-1.96-2.85-.63-1.5-.99-2.18-1.52-2.1-1.16.14-3.4 3.07-4.8 5.7l-.82 1.52-4.09-5.26 18.42-20.45 18.4 20.46-4.25 5.17-.82-1.43c-1.18-2.09-3.54-5.25-4.8-5.37-.56-.04-.91.6-1.55 2.08-.48 1.15-.98 2.33-2.01 2.8a1.8 1.8 0 0 1-1.6.04c-.72-.37-.96-1.13-1.1-1.75-.56.62-1.04 1.3-1.43 2.02z"/></defs><g><g transform="translate(-142 -2194)"><use fill="#2dd6c5" xlink:href="#sj4da"/></g></g></svg>