<svg xmlns="http://www.w3.org/2000/svg" xmlns:xlink="http://www.w3.org/1999/xlink" width="16" height="23" viewBox="0 0 16 23"><defs><path id="q3rva" d="M287.8 364.74c-.09.2-.2.39-.33.54-.13.15-.3.28-.52.4a4.5 4.5 0 0 1-1.38.46 9.7 9.7 0 0 1-1.53.17 17.47 17.47 0 0 1-1.84 0v-4.5a38 38 0 0 0 1.5-.02 14.2 14.2 0 0 1 1.9.16c.26.05.55.13.87.25a2 2 0 0 1 1.26 1.02c.13.24.2.53.2.84 0 .25-.05.48-.13.68zm-5.6-9.06zm.53 0l.72-.02a7.76 7.76 0 0 1 2.32.36c.26.1.48.23.64.37.16.15.3.34.4.56.11.23.17.49.17.78 0 .25-.04.48-.12.68-.08.2-.2.37-.36.51-.16.14-.32.26-.5.36-.16.1-.38.19-.64.25l-.68.14c-.2.04-.44.06-.74.08a45.53 45.53 0 0 1-1.28.02h-.46v-4.09h.53zm8.64 5.94a4 4 0 0 0-2.33-1.37c1.32-.68 1.9-1.82 1.74-3.44a3.4 3.4 0 0 0-.48-1.52 3.05 3.05 0 0 0-1.1-1.04 6.04 6.04 0 0 0-1.5-.6c-.54-.13-1.17-.23-1.87-.3V350h-2.05v3.26c-.35 0-.9 0-1.62.03V350h-2.05v3.35l-1.29.02-2.82-.02v2.19h1.48c.67 0 1.07.3 1.18.9v3.82l.21.01h-.2v5.35c-.08.45-.34.68-.78.68h-1.48l-.41 2.44h2.66a64.24 64.24 0 0 1 1.45 0v3.4h2.05v-3.35l1.62.01v3.34h2.05v-3.4c.73-.03 1.38-.1 1.94-.19.56-.1 1.1-.25 1.62-.46a3.67 3.67 0 0 0 2.15-1.96c.22-.48.37-1.04.43-1.67.11-1.23-.09-2.18-.6-2.84z"/></defs><g><g transform="translate(-276 -350)"><use fill="#1da7ae" xlink:href="#q3rva"/></g></g></svg>