<svg xmlns="http://www.w3.org/2000/svg" xmlns:xlink="http://www.w3.org/1999/xlink" width="20" height="28" viewBox="0 0 20 28"><defs><path id="8rb7a" d="M45.75 690.43c-.11.25-.25.48-.41.67-.17.18-.39.35-.66.5a5.63 5.63 0 0 1-1.71.58 12.13 12.13 0 0 1-1.92.2 21.83 21.83 0 0 1-2.3.01v-5.62l.8-.02 1.06-.01a17.76 17.76 0 0 1 2.38.2c.34.06.7.17 1.1.3.39.14.7.31.95.51.24.2.45.46.61.77.17.3.25.66.25 1.06 0 .31-.05.6-.15.85zm-7-11.33zm.66 0l.9-.02a9.7 9.7 0 0 1 2.9.45c.33.12.6.28.8.46.2.18.37.42.5.7.14.28.21.6.21.97 0 .31-.05.6-.15.85-.1.26-.25.47-.45.64a2.82 2.82 0 0 1-1.42.76 7.01 7.01 0 0 1-1.77.27 57.14 57.14 0 0 1-1.6.04l-.58-.01v-5.1l.66-.02zm10.8 7.42a5 5 0 0 0-2.9-1.71c1.64-.85 2.37-2.28 2.17-4.3a4.24 4.24 0 0 0-.6-1.9c-.35-.54-.8-.97-1.38-1.3a7.56 7.56 0 0 0-1.88-.74c-.68-.18-1.45-.3-2.33-.38V672h-2.56v4.08c-.44 0-1.12 0-2.03.03V672h-2.56v4.2H31v2.72h1.85c.84 0 1.33.38 1.48 1.13v4.77l.26.02h-.26v6.69c-.1.56-.41.85-.97.85h-1.84l-.52 3.04h3.33a80.06 80.06 0 0 1 1.81.02v4.24h2.56v-4.2c.47.02 1.14.02 2.03.02v4.18h2.56v-4.24c.91-.05 1.72-.13 2.42-.25.7-.13 1.38-.32 2.02-.58a4.6 4.6 0 0 0 2.69-2.45c.28-.6.46-1.3.54-2.08.14-1.54-.1-2.73-.75-3.56z"/></defs><g><g transform="translate(-31 -672)"><use fill="#fff" xlink:href="#8rb7a"/></g></g></svg>