<svg xmlns="http://www.w3.org/2000/svg" xmlns:xlink="http://www.w3.org/1999/xlink" width="20" height="29" viewBox="0 0 20 29"><defs><path id="dyxfa" d="M51.83 582.38H40.17v-3.48a5.84 5.84 0 0 1 11.66 0zm-3.93 10.88c.03.17-.08.3-.25.3H44.4a.25.25 0 0 1-.25-.3l.52-2.77a1.98 1.98 0 0 1 1.34-3.46 1.99 1.99 0 0 1 1.37 3.43zm7-10.7v-3.66a8.9 8.9 0 0 0-17.8 0v3.62c-.55.21-1.1.69-1.1 1.63v4.99a10.01 10.01 0 0 0 20 0v-4.99c0-.9-.53-1.37-1.1-1.6z"/></defs><g><g transform="translate(-36 -570)"><use fill="#fff" xlink:href="#dyxfa"/></g></g></svg>