<svg xmlns="http://www.w3.org/2000/svg" xmlns:xlink="http://www.w3.org/1999/xlink" width="17" height="18" viewBox="0 0 17 18"><defs><path id="t110a" d="M194.94 164.6a.82.82 0 0 0-1.15 1.16l2.42 2.42h-10.03a.82.82 0 0 0 0 1.64h10.03l-2.42 2.42a.82.82 0 1 0 1.15 1.16l3.82-3.82a.82.82 0 0 0 0-1.16z"/><path id="t110b" d="M190 178a.82.82 0 0 0 0-1.64h-6.27v-14.72H190a.82.82 0 0 0 0-1.64h-7.1a.82.82 0 0 0-.8.82v16.36c0 .45.36.82.8.82z"/></defs><g><g transform="translate(-182 -160)"><g><use fill="#fff" xlink:href="#t110a"/></g><g><use fill="#fff" xlink:href="#t110b"/></g></g></g></svg>