<svg xmlns="http://www.w3.org/2000/svg" width="47" height="47" viewBox="0 0 47 47"><defs><style>.cls-1{fill:#9e9e9e;fill-rule:evenodd}</style></defs><path id="icon" class="cls-1" d="M592.847 344.311l-20.5 1.7c-.014 0-.026.008-.04.008h-.136a1.151 1.151 0 0 0-1.171 1.132v25.721a1.15 1.15 0 0 0 1.172 1.128h.136c.014 0 .026.008.04.008l.091-.008H591.3a1.15 1.15 0 0 0 1.169-1.131v-.528l.378-.032a1.141 1.141 0 0 0 1.147-1.133v-25.732a1.141 1.141 0 0 0-1.147-1.133zm-1.9 28.561a.135.135 0 0 1-.146.12h-18.629a.135.135 0 0 1-.146-.12v-25.721a.137.137 0 0 1 .146-.122H590.8a.137.137 0 0 1 .146.122v25.721zm2.025-1.693a.124.124 0 0 1-.124.122h-.093l-.788.025v-24.175a1.151 1.151 0 0 0-1.169-1.132h-5.9l7.971-.695a.123.123 0 0 1 .1.12v25.735zm-6.1-4.178h-10.736a1.166 1.166 0 0 0-1.131 1.2v.6a1.165 1.165 0 0 0 1.131 1.2h10.739a1.165 1.165 0 0 0 1.131-1.2v-.6a1.166 1.166 0 0 0-1.131-1.201zm.131 1.8a.183.183 0 0 1-.131.2h-10.736a.182.182 0 0 1-.131-.2v-.6a.181.181 0 0 1 .131-.2h10.739a.181.181 0 0 1 .131.2v.6zM581.5 363a6.5 6.5 0 1 1 6.5-6.5 6.5 6.5 0 0 1-6.5 6.5zm0-12a5.5 5.5 0 1 0 5.5 5.5 5.5 5.5 0 0 0-5.5-5.5zm1 32a23.5 23.5 0 1 1 23.5-23.5 23.527 23.527 0 0 1-23.5 23.5zm0-46a22.5 22.5 0 1 0 22.5 22.5 22.526 22.526 0 0 0-22.5-22.5z" transform="translate(-559 -336)"/></svg>