<svg xmlns="http://www.w3.org/2000/svg" xmlns:xlink="http://www.w3.org/1999/xlink" width="52" height="36" viewBox="0 0 52 36"><defs><path id="u5x4a" d="M178.96 41.94l.42.01c3.03.3 6.22 4.51 7.96 7.17l1.25-1.52-21.38-23.78-21.47 23.81 1.08 1.4c1.72-2.8 4.88-7.17 7.88-7.56 3.2-.4 4.51 2.79 5.4 4.9.23.59.5 1.17.78 1.73.56-1.75 1.54-2.47 2.9-2.16 1.22.28 2.37 1.5 3.26 2.71.93-1.26 2.15-2.5 3.44-2.72 1.93-.34 2.6 1.48 2.83 2.45.26-.49.52-1.12.73-1.56.85-1.97 2.08-4.88 4.92-4.88zM167.02 55l-1.37-2.54c-.53-1-1.18-1.93-1.93-2.77-.22.75-.57 1.7-1.52 2.14-.48.22-1.26.37-2.28-.17-1.4-.72-2.08-2.38-2.73-3.97-.87-2.1-1.37-3.04-2.12-2.93-1.61.2-4.73 4.28-6.7 7.94l-1.13 2.11-5.7-7.33L167.22 19l25.63 28.5-5.92 7.2-1.14-1.98c-1.65-2.92-4.93-7.31-6.7-7.48-.77-.06-1.26.83-2.15 2.9-.66 1.59-1.37 3.24-2.8 3.9a2.5 2.5 0 0 1-2.23.05c-1-.52-1.33-1.58-1.54-2.43a14.6 14.6 0 0 0-1.98 2.8z"/></defs><g><g transform="translate(-141 -19)"><use fill="#2dd6c5" xlink:href="#u5x4a"/></g></g></svg>