<svg xmlns="http://www.w3.org/2000/svg" xmlns:xlink="http://www.w3.org/1999/xlink" width="16" height="16" viewBox="0 0 16 16"><defs><path id="95bha" d="M724.11 1123.44v4.45l3.8 2.25.65-1.07-3.11-1.85v-3.78z"/><path id="95bhb" d="M733 1119l-2.43 2.5a7.98 7.98 0 0 0-11.24 0 7.85 7.85 0 0 0 .02 11.18 8.05 8.05 0 0 0 11.3 0 8.32 8.32 0 0 0 2.35-5.6h-1.78a5.8 5.8 0 0 1-1.81 4.36 6.25 6.25 0 0 1-8.78 0 6.1 6.1 0 0 1 0-8.7 6.25 6.25 0 0 1 8.78.09l-2.44 2.5H733z"/></defs><g><g transform="translate(-717 -1119)"><g><g><use fill="#23ccbb" xlink:href="#95bha"/></g><g><use fill="#23ccbb" xlink:href="#95bhb"/></g></g></g></g></svg>