<svg xmlns="http://www.w3.org/2000/svg" xmlns:xlink="http://www.w3.org/1999/xlink" width="17" height="16" viewBox="0 0 17 16"><defs><path id="juhra" d="M726.5 1221.15l2 2c.15.15.15.41 0 .57l-1.16 1.16a.41.41 0 0 1-.3.12.41.41 0 0 1-.28-.12l-2-2a.1.1 0 0 0-.14 0l-2 2a.41.41 0 0 1-.58 0l-1.15-1.16a.41.41 0 0 1-.12-.29c0-.1.04-.21.12-.29l2-2a.1.1 0 0 0 0-.14l-2.09-2.08a.41.41 0 0 1-.12-.29c0-.11.05-.21.12-.3l1.16-1.14a.41.41 0 0 1 .29-.12c.1 0 .21.04.29.12l2.08 2.08c.04.03.1.03.14 0l2.08-2.08a.41.41 0 0 1 .3-.12c.1 0 .2.04.28.12l1.16 1.15c.07.08.12.18.12.3 0 .1-.05.2-.12.28l-2.08 2.08a.1.1 0 0 0 0 .15zm3.87-5.8a7.95 7.95 0 0 0-5.65-2.35c-2.14 0-4.15.83-5.66 2.34a7.95 7.95 0 0 0-2.34 5.66c0 2.14.83 4.15 2.34 5.66a7.95 7.95 0 0 0 5.66 2.34c2.13 0 4.14-.83 5.65-2.34a7.95 7.95 0 0 0 2.35-5.66c0-2.14-.84-4.15-2.35-5.66z"/></defs><g><g transform="translate(-716 -1213)"><use fill="#23ccbb" xlink:href="#juhra"/></g></g></svg>