<svg xmlns="http://www.w3.org/2000/svg" xmlns:xlink="http://www.w3.org/1999/xlink" width="28" height="28" viewBox="0 0 28 28"><defs><path id="936ua" d="M166.33 330.85a11.2 11.2 0 0 1-11.18-11.18 11.2 11.2 0 0 1 11.18-11.19 11.2 11.2 0 0 1 11.19 11.19 11.2 11.2 0 0 1-11.19 11.18zm0-24.85a13.68 13.68 0 0 0-13.66 13.67c0 7.53 6.13 13.66 13.66 13.66 7.54 0 13.67-6.13 13.67-13.66 0-7.54-6.13-13.67-13.67-13.67z"/><path id="936ub" d="M166.33 311.8a1.66 1.66 0 1 0 0 3.31 1.66 1.66 0 0 0 0-3.31z"/><path id="936uc" d="M166.33 317.6c-.68 0-1.24.55-1.24 1.24v7.45a1.24 1.24 0 0 0 2.49 0v-7.45c0-.69-.56-1.24-1.25-1.24z"/></defs><g><g transform="translate(-152 -306)"><g><use fill="#28d7cb" xlink:href="#936ua"/></g><g><use fill="#28d7cb" xlink:href="#936ub"/></g><g><use fill="#28d7cb" xlink:href="#936uc"/></g></g></g></svg>