<svg xmlns="http://www.w3.org/2000/svg" xmlns:xlink="http://www.w3.org/1999/xlink" width="17" height="17" viewBox="0 0 17 17"><defs><path id="xmkqa" d="M294.5 2079.45a6.96 6.96 0 1 1 .02-13.92 6.96 6.96 0 0 1-.02 13.92zm0-15.45a8.51 8.51 0 0 0 0 17 8.51 8.51 0 0 0 0-17z"/><path id="xmkqb" d="M294.5 2068.23a.9.9 0 1 0 0 1.8.9.9 0 0 0 0-1.8z"/><path id="xmkqc" d="M294.5 2071.38c-.37 0-.67.3-.67.67v4.05a.67.67 0 0 0 1.34 0v-4.05c0-.37-.3-.67-.67-.67z"/></defs><g><g transform="translate(-286 -2064)"><g><use fill="#583ac1" xlink:href="#xmkqa"/></g><g><use fill="#583ac1" xlink:href="#xmkqb"/></g><g><use fill="#583ac1" xlink:href="#xmkqc"/></g></g></g></svg>