<svg xmlns="http://www.w3.org/2000/svg" xmlns:xlink="http://www.w3.org/1999/xlink" width="25" height="25" viewBox="0 0 25 25"><defs><path id="tko5a" d="M293.5 198.73a10.24 10.24 0 0 1 0-20.46 10.24 10.24 0 0 1 0 20.46zm0-22.73c-6.9 0-12.5 5.6-12.5 12.5s5.6 12.5 12.5 12.5 12.5-5.6 12.5-12.5-5.6-12.5-12.5-12.5z"/><path id="tko5b" d="M293.5 182.22a1.32 1.32 0 1 0 0 2.65 1.32 1.32 0 0 0 0-2.65z"/><path id="tko5c" d="M293.5 186.85a1 1 0 0 0-1 .99v5.95a1 1 0 0 0 2 0v-5.95a1 1 0 0 0-1-1z"/></defs><g><g transform="translate(-281 -176)"><g><use fill="#583ac1" xlink:href="#tko5a"/></g><g><use fill="#583ac1" xlink:href="#tko5b"/></g><g><use fill="#583ac1" xlink:href="#tko5c"/></g></g></g></svg>