<svg xmlns="http://www.w3.org/2000/svg" xmlns:xlink="http://www.w3.org/1999/xlink" width="26" height="26" viewBox="0 0 26 26"><defs><path id="d6wda" d="M170.56 259a10.57 10.57 0 0 0-21.12 0 10.57 10.57 0 0 0 21.12 0zm2.44 0c0 7.17-5.83 13-13 13s-13-5.83-13-13 5.83-13 13-13 13 5.83 13 13zm-11.38 0v4.87a1.63 1.63 0 0 1-3.25 0V259a1.63 1.63 0 0 1 3.25 0zm0-4.88a1.63 1.63 0 1 1-3.25 0 1.63 1.63 0 0 1 3.25 0z"/></defs><g><g transform="translate(-147 -246)"><use fill="#583ac1" xlink:href="#d6wda"/></g></g></svg>