<svg xmlns="http://www.w3.org/2000/svg" xmlns:xlink="http://www.w3.org/1999/xlink" width="84" height="11" viewBox="0 0 84 11"><defs><path id="h083a" d="M187.37 2206.82v2.45h6.2v-2.45zm-2.37-2.2h8.67c.6-.02 1.17.21 1.58.62a2 2 0 0 1 .66 1.5v2.65c.01.57-.23 1.1-.66 1.5-.42.4-.99.63-1.58.62h-6.33c.03 0 .03.03.03.1h-.03v3.31H185z"/><path id="h083b" d="M199.36 2206.82v2.45h6.2v-2.45zm8.57-.08v2.65c.01.57-.23 1.1-.66 1.5-.42.4-.99.63-1.59.62h-.09l2.37 2.63v.75h-2.43l-3.04-3.4h-3.13c.03 0 .03.02.03.08h-.03v3.32h-2.34v-10.3h8.66c.6-.02 1.18.21 1.59.62.43.4.67.95.66 1.53z"/><path id="h083c" d="M211.85 2206.82v5.86h6.2v-5.86zm-.1-2.24h6.46c.6 0 1.17.22 1.58.63a2 2 0 0 1 .66 1.5v6.09c.02.56-.23 1.1-.66 1.5-.41.4-.98.62-1.58.62h-6.45c-.6.02-1.18-.21-1.58-.63a2 2 0 0 1-.67-1.5v-6.08a2.2 2.2 0 0 1 2.25-2.13z"/><path id="h083d" d="M223.68 2211.45v1.23h6.2v-8.1h2.37v8.22c.01.56-.23 1.1-.66 1.5-.42.4-.99.62-1.58.62h-6.46c-.6.02-1.17-.21-1.58-.63a2 2 0 0 1-.66-1.5v-1.34z"/><path id="h083e" d="M244.08 2204.58v2.24h-7.72v1.8h6.2v2.24h-6.2v1.79h7.72v2.24H234v-10.34h10.1z"/><path id="h083f" d="M256.48 2206.82h-8.54v5.86h8.54v2.24h-8.67c-.6.02-1.17-.21-1.58-.63a2 2 0 0 1-.66-1.5v-6.08c-.02-.57.22-1.11.66-1.5.42-.4.99-.63 1.58-.63h8.67z"/><path id="h083g" d="M257.52 2204.58h10.95v2.24h-4.27v8.1h-2.38v-8.1h-4.27v-2.24z"/></defs><g><g transform="translate(-185 -2204)"><g><use fill="#e4e4e4" xlink:href="#h083a"/></g><g><use fill="#e4e4e4" xlink:href="#h083b"/></g><g><use fill="#e4e4e4" xlink:href="#h083c"/></g><g><use fill="#e4e4e4" xlink:href="#h083d"/></g><g><use fill="#e4e4e4" xlink:href="#h083e"/></g><g><use fill="#e4e4e4" xlink:href="#h083f"/></g><g><use fill="#e4e4e4" xlink:href="#h083g"/></g></g></g></svg>