<svg xmlns="http://www.w3.org/2000/svg" xmlns:xlink="http://www.w3.org/1999/xlink" width="31" height="31" viewBox="0 0 31 31"><defs><path id="37hha" d="M300.15 1891.44h-17.1v-17.27h17.1zm-7.6 7.68h-17.1v-17.27h4.75v10.55c0 1.06.85 1.92 1.9 1.92h10.45zm8.55-27.83h-19c-1.05 0-1.9.86-1.9 1.92v5.76h-5.7c-1.04 0-1.9.86-1.9 1.92v19.2c0 1.05.86 1.91 1.9 1.91h19c1.05 0 1.9-.86 1.9-1.92v-5.76h5.7c1.05 0 1.9-.86 1.9-1.92v-19.2c0-1.05-.85-1.91-1.9-1.91z"/></defs><g><g transform="translate(-272 -1871)"><use fill="#583ac1" xlink:href="#37hha"/></g></g></svg>