<svg xmlns="http://www.w3.org/2000/svg" xmlns:xlink="http://www.w3.org/1999/xlink" width="83" height="11" viewBox="0 0 83 11"><defs><path id="a82ga" d="M61.94 2205.23v.96h-2.37v-.84h-6.2v1.8h6.33c.6-.02 1.17.21 1.58.62a2 2 0 0 1 .66 1.5v2.02c.01.57-.23 1.11-.66 1.5-.41.4-.99.63-1.58.62h-6.45c-.6.01-1.17-.21-1.59-.62a2 2 0 0 1-.66-1.5v-.92h2.34v.83h6.2v-1.79h-6.3c-.6.01-1.16-.22-1.58-.63a2 2 0 0 1-.66-1.49v-2.03c-.02-.56.23-1.1.66-1.5.42-.4.99-.62 1.59-.62h6.45c.6-.01 1.17.22 1.58.63.43.37.67.9.66 1.46z"/><path id="a82gb" d="M63.02 2203.1h10.94v2.25h-4.3v8.1H67.3v-8.1h-4.27z"/><path id="a82gc" d="M85.22 2203.1v2.25h-7.71v1.8h6.2v2.23h-6.2v1.8h7.71v2.23H75.13v-10.33h10.1z"/><path id="a82gd" d="M89.11 2207.89h6.17v-2.51h-6.2v2.5zm-.12-4.78h6.42c.6-.01 1.19.22 1.61.63a2 2 0 0 1 .66 1.49v8.21h-2.4v-3.31h-6.2v3.31h-2.34v-8.21c-.02-.56.23-1.1.66-1.5.42-.4.99-.63 1.59-.62z"/><path id="a82ge" d="M99.42 2213.44v-10.33h2.34v8.1h8.57v2.23z"/><path id="a82gf" d="M110.68 2203.1h10.95v2.25h-4.3v8.1h-2.38v-8.1h-4.27z"/><path id="a82gg" d="M131.59 2203.1h2.34v10.34h-2.34v-4.03h-6.45v4.03h-2.34v-10.33h2.34v4.03h6.45z"/></defs><g><g transform="translate(-51 -2203)"><g><use fill="#e4e4e4" xlink:href="#a82ga"/></g><g><use fill="#e4e4e4" xlink:href="#a82gb"/></g><g><use fill="#e4e4e4" xlink:href="#a82gc"/></g><g><use fill="#e4e4e4" xlink:href="#a82gd"/></g><g><use fill="#e4e4e4" xlink:href="#a82ge"/></g><g><use fill="#e4e4e4" xlink:href="#a82gf"/></g><g><use fill="#e4e4e4" xlink:href="#a82gg"/></g></g></g></svg>