<svg xmlns="http://www.w3.org/2000/svg" xmlns:xlink="http://www.w3.org/1999/xlink" width="110" height="36" viewBox="0 0 110 36"><defs><path id="ojv7a" d="M37.4 22v1.33h-3.12v-1.17h-8.16v2.5h8.32a2.8 2.8 0 0 1 2.09.87c.56.55.87 1.3.87 2.08v2.83a2.8 2.8 0 0 1-.87 2.08c-.55.57-1.3.88-2.09.88h-8.48a2.8 2.8 0 0 1-2.09-.88 2.86 2.86 0 0 1-.87-2.08v-1.29h3.08v1.17h8.16v-2.5h-8.28a2.8 2.8 0 0 1-2.09-.87 2.86 2.86 0 0 1-.87-2.08v-2.83c-.02-.79.3-1.55.87-2.08.55-.57 1.3-.88 2.09-.88h8.48a2.8 2.8 0 0 1 2.09.88c.56.52.88 1.26.87 2.04z"/><path id="ojv7b" d="M38.81 19.04h14.4v3.12h-5.66v11.28h-3.12V22.16h-5.62z"/><path id="ojv7c" d="M68.03 19.04v3.12H57.87v2.5h8.16v3.12h-8.16v2.5h10.16v3.12H54.75V19h13.28z"/><path id="ojv7d" d="M73.15 25.7h8.11v-3.5H73.1v3.5zm-.17-6.66h8.45c.8-.01 1.56.3 2.12.88.56.54.88 1.3.87 2.08v11.44h-3.16v-4.62H73.1v4.62h-3.08V22c-.02-.8.3-1.55.88-2.08a2.8 2.8 0 0 1 2.08-.88z"/><path id="ojv7e" d="M86.71 33.44v-14.4h3.08v11.28h11.28v3.12z"/><path id="ojv7f" d="M101.53 19.04h14.4v3.12h-5.66v11.28h-3.13V22.16h-5.61z"/><path id="ojv7g" d="M129.03 19.04h3.08v14.4h-3.08v-5.62h-8.49v5.62h-3.07v-14.4h3.07v5.62h8.5z"/><path id="ojv7h" d="M26.12 43.72v3.41h8.16v-3.4zM23 40.64h11.4a2.8 2.8 0 0 1 2.08.88c.57.54.88 1.3.88 2.08v3.7a2.8 2.8 0 0 1-.88 2.08c-.54.56-1.3.88-2.08.87h-8.32c.04 0 .04.05.04.13h-.04V55H23z"/><path id="ojv7i" d="M41.9 43.72v3.41h8.15v-3.4zm11.27-.12v3.7a2.8 2.8 0 0 1-.87 2.08c-.55.56-1.3.88-2.08.87h-.13l3.12 3.67v1.04h-3.2l-4-4.75H41.9c.04 0 .04.04.04.13h-.04v4.62h-3.08V40.6h11.4a2.8 2.8 0 0 1 2.09.87c.56.57.88 1.33.87 2.13z"/><path id="ojv7j" d="M58.33 43.72v8.16h8.16v-8.16zm-.12-3.12h8.48a2.8 2.8 0 0 1 2.09.87c.56.55.87 1.3.87 2.08v8.5a2.8 2.8 0 0 1-.87 2.08c-.55.56-1.3.87-2.09.87h-8.48c-.8.02-1.55-.3-2.09-.87a2.86 2.86 0 0 1-.87-2.09v-8.49a2.98 2.98 0 0 1 2.96-2.95z"/><path id="ojv7k" d="M73.9 50.17v1.7h8.15V40.6h3.12v11.44a2.8 2.8 0 0 1-.87 2.09c-.55.56-1.3.87-2.08.87h-8.5c-.78.02-1.54-.3-2.07-.88a2.86 2.86 0 0 1-.88-2.08v-1.87z"/><path id="ojv7l" d="M100.74 40.6v3.12H90.58v2.5h8.16v3.12h-8.16v2.5h10.16v3.12H87.46v-14.4h13.28z"/><path id="ojv7m" d="M117.05 43.72H105.8v8.16h11.24V55h-11.4c-.8.02-1.55-.3-2.09-.87a2.86 2.86 0 0 1-.87-2.09v-8.49c-.02-.78.3-1.54.87-2.08.55-.56 1.3-.88 2.09-.87h11.4z"/><path id="ojv7n" d="M118.42 40.6h14.4v3.12h-5.62V55h-3.12V43.72h-5.62V40.6z"/></defs><g><g transform="translate(-23 -19)"><g><g><use fill="#fff" xlink:href="#ojv7a"/></g><g><use fill="#fff" xlink:href="#ojv7b"/></g><g><use fill="#fff" xlink:href="#ojv7c"/></g><g><use fill="#fff" xlink:href="#ojv7d"/></g><g><use fill="#fff" xlink:href="#ojv7e"/></g><g><use fill="#fff" xlink:href="#ojv7f"/></g><g><use fill="#fff" xlink:href="#ojv7g"/></g></g><g><g><use fill="#fff" xlink:href="#ojv7h"/></g><g><use fill="#fff" xlink:href="#ojv7i"/></g><g><use fill="#fff" xlink:href="#ojv7j"/></g><g><use fill="#fff" xlink:href="#ojv7k"/></g><g><use fill="#fff" xlink:href="#ojv7l"/></g><g><use fill="#fff" xlink:href="#ojv7m"/></g><g><use fill="#fff" xlink:href="#ojv7n"/></g></g></g></g></svg>