<svg xmlns="http://www.w3.org/2000/svg" xmlns:xlink="http://www.w3.org/1999/xlink" width="75" height="24" viewBox="0 0 75 24"><defs><path id="9bjza" d="M24.83 20.93v.86H22.7v-.75h-5.57v1.61h5.69c.53 0 1.05.2 1.42.56.38.36.6.84.6 1.35v1.82c0 .5-.21 1-.6 1.34-.37.37-.89.57-1.42.57h-5.8c-.54 0-1.05-.2-1.42-.57a1.8 1.8 0 0 1-.6-1.34v-.83h2.1v.75h5.57v-1.6h-5.65c-.54 0-1.05-.2-1.42-.57a1.8 1.8 0 0 1-.6-1.34v-1.83c-.01-.5.2-1 .6-1.34.37-.37.88-.57 1.42-.57h5.8c.53 0 1.05.2 1.42.57.39.34.6.81.6 1.31z"/><path id="9bjzb" d="M25.8 19.03h9.84v2.01h-3.87v7.27h-2.13v-7.27H25.8z"/><path id="9bjzc" d="M45.75 19.03v2.01h-6.93v1.61h5.57v2.01h-5.57v1.61h6.93v2.02H36.7V19h9.06z"/><path id="9bjzd" d="M49.25 23.32h5.54v-2.25h-5.57v2.25zm-.11-4.3h5.77c.54 0 1.07.2 1.45.57.38.35.6.84.6 1.34v7.38h-2.17v-2.97h-5.57v2.97h-2.1v-7.38c-.02-.5.2-1 .6-1.34.36-.37.88-.57 1.42-.56z"/><path id="9bjze" d="M58.52 28.31v-9.28h2.1v7.27h7.7v2.01z"/><path id="9bjzf" d="M68.63 19.03h9.84v2.01H74.6v7.27h-2.13v-7.27h-3.84z"/><path id="9bjzg" d="M87.42 19.03h2.1v9.28h-2.1V24.7h-5.8v3.62h-2.1v-9.28h2.1v3.62h5.8z"/><path id="9bjzh" d="M17.13 34.95v2.2h5.57v-2.2zM15 32.96h7.79c.53 0 1.05.2 1.42.56.38.36.6.84.6 1.35v2.39c0 .5-.21.99-.6 1.34-.37.36-.89.57-1.42.56H17.1c.03 0 .03.03.03.08h-.03v2.98H15z"/><path id="9bjzi" d="M27.9 34.95v2.2h5.57v-2.2zm7.7-.08v2.39c.02.5-.2.99-.6 1.34-.36.36-.88.57-1.41.56h-.09l2.13 2.36v.67h-2.18l-2.73-3.06H27.9c.03 0 .03.03.03.09h-.03v2.97h-2.1v-9.26h7.79c.53 0 1.05.2 1.42.57.39.36.6.85.6 1.37z"/><path id="9bjzj" d="M39.13 34.95v5.26h5.57v-5.26zm-.08-2.02h5.8c.53 0 1.05.2 1.41.57.39.35.6.83.6 1.34v5.48c.01.5-.2.99-.6 1.34-.37.36-.88.57-1.42.56h-5.8c-.53.02-1.05-.19-1.42-.56a1.8 1.8 0 0 1-.6-1.34v-5.48c.02-1.05.92-1.9 2.03-1.9z"/><path id="9bjzk" d="M49.76 39.1v1.1h5.57v-7.27h2.13v7.39c.01.5-.2.99-.6 1.34-.37.36-.88.57-1.41.56h-5.8c-.54.02-1.06-.19-1.42-.56a1.8 1.8 0 0 1-.6-1.34V39.1z"/><path id="9bjzl" d="M68.1 32.93v2.02h-6.94v1.6h5.57v2.02h-5.57v1.61h6.93v2.01h-9.06v-9.28h9.06z"/><path id="9bjzm" d="M79.24 34.95h-7.68v5.26h7.68v2.01h-7.8c-.53.02-1.05-.19-1.41-.56a1.8 1.8 0 0 1-.6-1.34v-5.48c-.02-.5.2-1 .6-1.34.37-.37.88-.57 1.42-.57h7.79z"/><path id="9bjzn" d="M80.17 32.93h9.84v2.02h-3.84v7.27h-2.13v-7.27H80.2v-2.02z"/></defs><g><g transform="translate(-15 -19)"><g><g><use fill="#fff" xlink:href="#9bjza"/></g><g><use fill="#fff" xlink:href="#9bjzb"/></g><g><use fill="#fff" xlink:href="#9bjzc"/></g><g><use fill="#fff" xlink:href="#9bjzd"/></g><g><use fill="#fff" xlink:href="#9bjze"/></g><g><use fill="#fff" xlink:href="#9bjzf"/></g><g><use fill="#fff" xlink:href="#9bjzg"/></g></g><g><g><use fill="#fff" xlink:href="#9bjzh"/></g><g><use fill="#fff" xlink:href="#9bjzi"/></g><g><use fill="#fff" xlink:href="#9bjzj"/></g><g><use fill="#fff" xlink:href="#9bjzk"/></g><g><use fill="#fff" xlink:href="#9bjzl"/></g><g><use fill="#fff" xlink:href="#9bjzm"/></g><g><use fill="#fff" xlink:href="#9bjzn"/></g></g></g></g></svg>