<svg xmlns="http://www.w3.org/2000/svg" xmlns:xlink="http://www.w3.org/1999/xlink" width="21" height="21" viewBox="0 0 21 21"><defs><path id="h6z0a" d="M284.88 76.5a10.56 10.56 0 1 1 21.12 0 10.56 10.56 0 0 1-21.12 0z"/><path id="h6z0b" d="M298.79 77.57h.12c.84.08 1.73 1.23 2.22 1.95l.35-.42-5.98-6.46-6 6.47.3.38c.49-.76 1.37-1.95 2.2-2.05.9-.11 1.27.76 1.52 1.33.06.16.13.32.22.47.15-.47.43-.67.8-.59.35.08.67.41.92.74.26-.34.6-.68.96-.74.54-.1.72.4.79.66l.2-.42c.24-.53.58-1.32 1.38-1.32zm-3.34 3.54l-.38-.69a3.74 3.74 0 0 0-.54-.75c-.06.2-.16.46-.43.58-.13.06-.35.1-.63-.04-.4-.2-.59-.65-.77-1.08-.24-.57-.38-.83-.59-.8-.45.06-1.32 1.17-1.87 2.16l-.32.57-1.59-1.99 7.17-7.74 7.17 7.75-1.66 1.95-.31-.54c-.47-.79-1.38-1.98-1.88-2.03-.21-.01-.35.23-.6.79-.19.43-.38.88-.78 1.06a.72.72 0 0 1-.62.01c-.28-.14-.38-.43-.43-.66-.22.23-.4.49-.56.76z"/><clipPath id="h6z0c"><use fill="#fff" xlink:href="#h6z0a"/></clipPath></defs><g><g transform="translate(-285 -66)"><g><use fill="#28aaaa" xlink:href="#h6z0b"/></g></g><g transform="translate(-285 -66)"><use fill="#fff" fill-opacity="0" stroke="#24afb3" stroke-miterlimit="50" stroke-width="3" clip-path="url(&quot;#h6z0c&quot;)" xlink:href="#h6z0a"/></g></g></svg>